<?xml version="1.0" standalone="no"?>
<!DOCTYPE svg PUBLIC "-//W3C//DTD SVG 20010904//EN"
 "http://www.w3.org/TR/2001/REC-SVG-20010904/DTD/svg10.dtd">
<svg version="1.0" xmlns="http://www.w3.org/2000/svg"
 width="2000.000000pt" height="492.000000pt" viewBox="0 0 2000.000000 492.000000"
 preserveAspectRatio="xMidYMid meet">

<g transform="translate(0.000000,492.000000) scale(0.100000,-0.100000)"
fill="currentcolor" stroke="none">
<path d="M1323 4886 c-192 -36 -379 -186 -444 -356 -47 -122 -32 -334 30 -432
60 -94 139 -131 281 -131 148 0 222 40 272 148 19 42 23 67 23 150 0 87 -3
107 -26 156 -57 122 -162 183 -271 160 -28 -6 -53 -9 -55 -7 -8 7 69 54 113
70 142 50 308 19 498 -93 101 -60 171 -134 192 -207 39 -135 -36 -422 -159
-604 -41 -61 -148 -196 -342 -430 -393 -474 -509 -663 -566 -921 -23 -103 -23
-113 -29 -984 -6 -734 -9 -889 -22 -935 -25 -95 -57 -140 -108 -155 -37 -11
-70 -45 -70 -72 0 -43 27 -82 63 -88 17 -3 211 -5 430 -3 381 3 399 4 413 22
34 47 3 127 -53 141 -47 11 -82 54 -106 130 -22 70 -22 71 -22 930 0 930 0
925 56 1142 73 284 255 663 473 983 l51 75 3 -170 c1 -93 1 -782 -1 -1530 -2
-1217 -4 -1365 -19 -1412 -26 -83 -52 -118 -113 -146 -58 -28 -75 -49 -75 -94
0 -36 9 -49 43 -62 36 -14 805 -15 841 -1 38 14 51 45 36 92 -10 35 -18 43
-66 64 -49 21 -58 30 -79 77 -16 35 -28 87 -35 153 -7 67 -10 698 -7 1974 3
1689 5 1882 19 1947 25 106 51 151 102 174 56 25 71 43 71 91 0 30 -6 45 -24
59 -22 18 -44 19 -357 19 l-334 0 0 -50 c0 -27 -2 -50 -5 -50 -3 0 -29 18 -58
39 -156 116 -381 171 -564 137z"/>
<path d="M5620 4889 c-225 -34 -434 -206 -486 -403 -28 -104 -13 -266 33 -363
56 -121 203 -182 363 -153 150 27 216 105 227 269 7 93 -12 166 -59 237 -60
89 -149 123 -263 101 l-40 -7 25 21 c53 47 130 73 220 77 107 5 184 -14 305
-73 117 -58 200 -125 239 -195 29 -52 31 -60 29 -155 -3 -153 -55 -323 -145
-472 -35 -58 -202 -271 -404 -513 -344 -414 -470 -621 -525 -871 -23 -103 -23
-112 -29 -984 -6 -789 -8 -886 -23 -940 -23 -81 -43 -105 -110 -137 -42 -20
-58 -34 -63 -54 -10 -40 12 -99 41 -112 18 -9 142 -12 421 -12 456 0 454 0
454 81 0 46 -23 75 -80 103 -25 11 -55 36 -67 54 -47 71 -48 92 -48 997 0 919
0 916 56 1132 73 284 255 663 473 983 l51 75 3 -170 c1 -93 1 -782 -1 -1530
-2 -1210 -5 -1366 -19 -1411 -24 -80 -49 -114 -100 -140 -58 -29 -88 -67 -88
-110 0 -65 -4 -64 467 -64 466 0 446 -3 458 64 10 51 -14 88 -74 115 -56 25
-85 59 -110 129 -23 69 -30 1736 -7 1882 31 198 101 395 237 670 82 164 250
457 311 542 16 22 17 -63 17 -1467 0 -949 -3 -1515 -9 -1560 -6 -38 -21 -92
-34 -120 -20 -44 -31 -55 -79 -78 -47 -22 -57 -32 -66 -61 -12 -47 -1 -88 30
-103 18 -10 127 -13 427 -13 l403 0 24 25 c19 18 25 35 25 67 0 55 -6 63 -60
86 -88 38 -115 94 -131 267 -6 70 -9 791 -7 1975 3 1749 4 1869 21 1924 27 91
52 125 112 152 57 25 65 36 65 93 0 73 14 71 -452 71 -382 0 -417 -1 -436 -17
-47 -41 -19 -143 39 -143 28 0 75 -46 93 -91 29 -73 42 -234 28 -367 -25 -255
-97 -395 -390 -762 -90 -113 -168 -209 -174 -215 -5 -6 -8 225 -6 620 3 569 5
635 21 683 23 69 68 119 119 132 31 9 43 18 54 45 19 47 18 62 -11 90 l-24 25
-336 0 -335 0 0 -50 c0 -27 -3 -50 -6 -50 -3 0 -23 13 -43 29 -105 82 -230
134 -362 151 -93 11 -110 11 -189 -1z"/>
<path d="M16855 4892 c-52 -10 -208 -68 -280 -104 -380 -191 -708 -608 -890
-1129 -126 -362 -160 -704 -109 -1104 35 -274 134 -700 253 -1085 197 -643
260 -917 268 -1187 3 -90 7 -163 9 -163 1 0 42 14 91 31 195 69 356 172 514
329 173 172 293 347 429 625 116 238 191 467 237 725 24 130 26 172 27 395 1
224 -1 262 -22 365 -50 248 -110 466 -234 855 -206 646 -298 1013 -298 1187 0
38 7 103 16 144 19 94 16 121 -11 116z m-470 -983 c23 -183 59 -334 122 -514
228 -661 296 -884 358 -1189 70 -346 83 -641 37 -841 -47 -202 -123 -418 -208
-590 -53 -109 -140 -239 -154 -230 -4 2 -10 35 -14 72 -11 109 -55 407 -81
550 -40 219 -72 348 -136 553 -166 534 -256 898 -310 1250 -17 109 -22 192
-23 335 -1 175 1 199 27 308 81 339 192 601 305 714 l47 47 7 -171 c4 -94 14
-226 23 -294z"/>
<path d="M18471 4890 c-322 -45 -585 -267 -692 -585 l-24 -70 -5 -1855 c-5
-1622 -8 -1862 -21 -1910 -27 -96 -58 -140 -109 -155 -37 -11 -70 -45 -70 -72
0 -43 27 -82 63 -88 17 -3 211 -5 430 -3 381 3 399 4 413 22 34 48 2 128 -56
141 -39 8 -75 53 -97 118 -14 44 -17 105 -21 420 l-3 367 65 -49 c87 -66 159
-92 271 -98 233 -12 452 101 540 281 134 273 -2 591 -264 613 -133 11 -241
-44 -296 -152 -26 -52 -30 -69 -30 -144 0 -103 23 -162 88 -230 59 -61 126
-91 206 -91 61 0 65 2 103 40 39 38 40 39 33 12 -24 -96 -157 -162 -329 -162
-73 0 -166 22 -215 52 -53 31 -120 98 -144 143 -40 77 -33 336 14 460 11 29
46 95 78 147 92 146 181 208 534 367 108 49 218 104 244 123 97 70 155 175
174 317 6 48 9 324 7 741 -4 648 -4 667 -26 745 -39 144 -94 238 -196 340
-107 107 -204 163 -337 194 -102 24 -241 33 -328 21z m189 -210 c30 -17 53
-40 70 -70 l25 -45 0 -920 c0 -1006 0 -1015 -57 -1099 -28 -43 -69 -74 -233
-177 -38 -24 -95 -65 -127 -91 -31 -27 -60 -48 -63 -48 -3 0 -4 525 -3 1168
l3 1167 25 45 c19 34 38 52 80 73 51 26 62 28 145 25 73 -3 99 -9 135 -28z"/>
<path d="M2827 4792 c-46 -50 -27 -119 41 -147 53 -23 79 -51 104 -114 l23
-56 3 -1950 c2 -1246 -1 -1973 -7 -2014 -15 -94 -53 -165 -99 -186 -74 -33
-83 -39 -88 -61 -9 -36 15 -94 43 -105 21 -8 1773 -14 1773 -6 0 1 7 56 16
122 8 66 17 233 21 370 5 219 4 258 -11 310 -37 126 -134 248 -239 299 -205
101 -491 16 -584 -173 -26 -51 -28 -65 -27 -166 0 -90 5 -121 24 -169 46 -120
157 -186 309 -186 90 0 152 22 195 70 45 50 60 104 60 210 0 140 -37 214 -128
256 l-51 23 50 0 c114 2 190 -50 219 -149 22 -74 21 -203 -2 -278 -47 -149
-190 -287 -363 -350 -69 -24 -88 -27 -272 -30 l-197 -4 -34 34 c-19 19 -42 58
-52 89 -18 51 -19 118 -22 1163 l-3 1109 28 30 c102 109 308 169 403 118 70
-37 105 -167 61 -222 -10 -13 -50 -39 -87 -59 -77 -39 -92 -66 -52 -94 20 -14
72 -16 424 -16 375 0 403 1 424 18 18 14 21 25 16 45 -5 22 -16 29 -62 43 -70
20 -77 36 -110 224 -28 160 -45 216 -87 290 -44 77 -107 136 -185 173 -65 31
-71 32 -202 32 -120 0 -143 -3 -208 -27 -95 -34 -203 -102 -291 -184 l-72 -67
3 739 c3 681 5 743 21 793 10 29 29 64 42 77 23 23 29 24 188 24 148 0 167 -2
189 -20 66 -51 62 -121 -18 -356 -49 -145 -58 -182 -62 -260 -10 -218 112
-408 306 -475 65 -23 197 -28 275 -10 117 27 225 110 269 206 19 42 23 66 22
150 -1 110 -18 174 -63 237 -66 92 -208 141 -350 121 -127 -19 -189 -81 -211
-216 -25 -145 16 -270 105 -320 l50 -28 -40 7 c-103 17 -180 73 -205 150 -17
52 -7 202 19 284 61 191 199 354 367 436 39 18 120 45 181 60 131 30 153 47
161 122 8 89 89 82 -989 82 -901 0 -947 -1 -962 -18z"/>
<path d="M8197 4792 c-46 -50 -27 -119 41 -147 53 -23 79 -51 104 -114 l23
-56 3 -1950 c2 -1246 -1 -1973 -7 -2014 -15 -94 -53 -165 -99 -186 -74 -33
-83 -39 -88 -61 -9 -36 15 -94 43 -105 21 -8 1773 -14 1773 -6 0 1 7 56 16
122 8 66 17 233 21 370 5 219 4 258 -11 310 -37 126 -134 248 -239 299 -205
101 -491 16 -584 -173 -26 -51 -28 -65 -27 -166 0 -90 5 -121 24 -169 46 -120
157 -186 309 -186 90 0 152 22 195 70 45 50 60 104 60 210 0 140 -37 214 -128
256 l-51 23 50 0 c114 2 190 -50 219 -149 22 -74 21 -203 -2 -278 -47 -149
-190 -287 -363 -350 -69 -24 -88 -27 -272 -30 l-197 -4 -34 34 c-19 19 -42 58
-52 89 -18 51 -19 118 -22 1163 l-3 1109 28 30 c102 109 308 169 403 118 70
-37 105 -167 61 -222 -10 -13 -50 -39 -87 -59 -77 -39 -92 -66 -52 -94 20 -14
72 -16 424 -16 375 0 403 1 424 18 18 14 21 25 16 45 -5 22 -16 29 -62 43 -70
20 -77 36 -110 224 -28 160 -45 216 -87 290 -44 77 -107 136 -185 173 -65 31
-71 32 -202 32 -120 0 -143 -3 -208 -27 -95 -34 -203 -102 -291 -184 l-72 -67
3 739 c3 681 5 743 21 793 10 29 29 64 42 77 23 23 29 24 188 24 148 0 167 -2
189 -20 66 -51 62 -121 -18 -356 -49 -145 -58 -182 -62 -260 -10 -218 112
-408 306 -475 65 -23 197 -28 275 -10 117 27 225 110 269 206 19 42 23 66 22
150 -1 110 -18 174 -63 237 -66 92 -208 141 -350 121 -127 -19 -189 -81 -211
-216 -25 -145 16 -270 105 -320 l50 -28 -40 7 c-103 17 -180 73 -205 150 -17
52 -7 202 19 284 61 191 199 354 367 436 39 18 120 45 181 60 131 30 153 47
161 122 8 89 89 82 -989 82 -901 0 -947 -1 -962 -18z"/>
<path d="M10307 4792 c-47 -52 -26 -124 41 -142 75 -20 107 -87 122 -256 8
-81 10 -718 8 -1994 -3 -1684 -5 -1881 -20 -1934 -20 -75 -43 -106 -98 -132
-76 -37 -97 -82 -65 -143 8 -16 25 -31 37 -35 13 -3 676 -6 1473 -6 1146 0
1455 3 1475 13 21 10 25 21 28 63 3 57 -9 74 -81 109 -50 25 -73 54 -94 125
-16 51 -18 208 -21 1940 -2 1213 1 1925 7 1997 15 164 60 253 127 253 38 0 64
34 64 83 0 80 20 77 -461 77 -325 0 -429 -3 -442 -13 -10 -6 -20 -28 -23 -47
-8 -47 22 -84 85 -105 55 -18 71 -37 98 -116 17 -52 18 -142 21 -1974 2 -1309
0 -1949 -8 -2013 -12 -111 -32 -163 -73 -198 l-32 -27 -140 6 c-143 6 -204 18
-230 47 -8 9 -22 45 -32 80 -17 61 -18 175 -18 2020 0 2078 -1 2019 46 2112
22 43 54 68 86 68 37 0 63 34 63 83 0 80 20 77 -458 77 -409 0 -423 -1 -442
-20 -25 -25 -26 -80 -2 -109 9 -11 39 -28 66 -38 42 -15 54 -26 73 -63 13 -27
27 -80 33 -130 14 -120 14 -3821 -1 -3926 -13 -98 -33 -147 -72 -180 -31 -26
-33 -26 -157 -21 -185 8 -233 28 -262 113 -17 51 -25 3917 -8 4029 17 109 42
153 106 181 29 13 58 32 63 43 17 31 13 79 -9 101 -19 19 -33 20 -438 20 -392
0 -420 -1 -435 -18z"/>
<path d="M13477 4792 c-47 -52 -26 -124 41 -142 75 -20 107 -87 122 -256 8
-81 10 -716 8 -1999 -3 -1742 -5 -1884 -21 -1938 -23 -78 -40 -102 -92 -126
-47 -22 -85 -63 -85 -93 0 -32 28 -75 52 -82 13 -3 200 -6 416 -6 454 0 452 0
452 81 0 46 -23 75 -81 103 -53 25 -85 82 -100 177 -6 40 -8 526 -7 1277 l3
1214 200 -231 c326 -375 318 -340 313 -1511 -3 -696 -5 -759 -22 -809 -25 -77
-40 -96 -101 -130 -59 -33 -75 -55 -75 -98 1 -72 5 -73 462 -73 304 0 409 3
428 13 21 10 25 21 28 63 3 57 -9 74 -81 109 -51 25 -72 54 -93 130 -16 53
-18 148 -23 855 l-6 795 -28 69 c-74 186 -164 294 -532 634 -245 228 -299 282
-289 292 5 5 145 92 312 193 321 197 380 240 437 316 73 100 91 199 105 551 5
146 15 290 21 320 21 100 64 160 116 160 37 0 63 34 63 83 0 80 20 77 -458 77
-409 0 -423 -1 -442 -20 -25 -25 -26 -80 -2 -109 9 -11 39 -28 66 -38 102 -37
119 -130 114 -623 l-3 -325 -29 -60 c-20 -42 -57 -88 -120 -151 -84 -83 -272
-234 -293 -234 -5 0 -22 26 -38 58 l-30 57 -3 515 c-3 541 2 619 40 699 17 35
31 48 74 67 29 13 58 32 63 43 17 31 13 79 -9 101 -19 19 -33 20 -438 20 -392
0 -420 -1 -435 -18z"/>
</g>
</svg>
